<mxfile host="65bd71144e">
    <diagram id="xmC_RtT0PntRDoIbiKWE" name="Page-1">
        <mxGraphModel dx="666" dy="556" grid="1" gridSize="10" guides="1" tooltips="1" connect="1" arrows="1" fold="1" page="1" pageScale="1" pageWidth="850" pageHeight="1100" math="0" shadow="0">
            <root>
                <mxCell id="0"/>
                <mxCell id="1" parent="0"/>
                <mxCell id="25" style="edgeStyle=orthogonalEdgeStyle;rounded=0;html=1;exitX=1;exitY=0.5;exitDx=0;exitDy=0;exitPerimeter=0;entryX=1;entryY=0.75;entryDx=0;entryDy=0;fontSize=17;endArrow=none;endFill=0;strokeColor=#FFFFFF;shadow=0;jumpStyle=none;" edge="1" parent="1" source="2" target="23">
                    <mxGeometry relative="1" as="geometry">
                        <Array as="points">
                            <mxPoint x="230" y="260"/>
                            <mxPoint x="230" y="50"/>
                            <mxPoint x="200" y="50"/>
                            <mxPoint x="200" y="90"/>
                        </Array>
                    </mxGeometry>
                </mxCell>
                <mxCell id="27" value="PA1&lt;br style=&quot;font-size: 14px;&quot;&gt;" style="edgeLabel;html=1;align=center;verticalAlign=middle;resizable=0;points=[];fontSize=14;" vertex="1" connectable="0" parent="25">
                    <mxGeometry x="0.3879" y="-4" relative="1" as="geometry">
                        <mxPoint x="-10" y="155" as="offset"/>
                    </mxGeometry>
                </mxCell>
                <mxCell id="2" value="" style="pointerEvents=1;verticalLabelPosition=bottom;shadow=0;dashed=0;align=center;html=1;verticalAlign=top;shape=mxgraph.electrical.capacitors.capacitor_1;" vertex="1" parent="1">
                    <mxGeometry x="124" y="230" width="100" height="60" as="geometry"/>
                </mxCell>
                <mxCell id="24" style="edgeStyle=orthogonalEdgeStyle;rounded=0;html=1;exitX=1;exitY=0.5;exitDx=0;exitDy=0;exitPerimeter=0;entryX=1;entryY=0.5;entryDx=0;entryDy=0;fontSize=17;endArrow=none;endFill=0;strokeColor=#FFFFFF;" edge="1" parent="1" source="3" target="23">
                    <mxGeometry relative="1" as="geometry">
                        <Array as="points">
                            <mxPoint x="210" y="170"/>
                            <mxPoint x="210" y="70"/>
                        </Array>
                    </mxGeometry>
                </mxCell>
                <mxCell id="26" value="PA0" style="edgeLabel;html=1;align=center;verticalAlign=middle;resizable=0;points=[];fontSize=14;" vertex="1" connectable="0" parent="24">
                    <mxGeometry x="-0.137" y="-1" relative="1" as="geometry">
                        <mxPoint x="-7" as="offset"/>
                    </mxGeometry>
                </mxCell>
                <mxCell id="3" value="" style="pointerEvents=1;verticalLabelPosition=bottom;shadow=0;dashed=0;align=center;html=1;verticalAlign=top;shape=mxgraph.electrical.capacitors.capacitor_1;" vertex="1" parent="1">
                    <mxGeometry x="124" y="140" width="100" height="60" as="geometry"/>
                </mxCell>
                <mxCell id="22" style="edgeStyle=orthogonalEdgeStyle;html=1;exitX=0.5;exitY=0;exitDx=0;exitDy=0;exitPerimeter=0;fontSize=17;strokeColor=#FFFFFF;rounded=0;endArrow=none;endFill=0;entryX=0.007;entryY=0.973;entryDx=0;entryDy=0;entryPerimeter=0;" edge="1" parent="1" source="4" target="7">
                    <mxGeometry relative="1" as="geometry">
                        <mxPoint x="294" y="280" as="targetPoint"/>
                        <Array as="points">
                            <mxPoint x="123" y="310"/>
                            <mxPoint x="310" y="310"/>
                        </Array>
                    </mxGeometry>
                </mxCell>
                <mxCell id="4" value="" style="pointerEvents=1;verticalLabelPosition=bottom;shadow=0;dashed=0;align=center;html=1;verticalAlign=top;shape=mxgraph.electrical.signal_sources.signal_ground;" vertex="1" parent="1">
                    <mxGeometry x="101" y="360" width="45" height="30" as="geometry"/>
                </mxCell>
                <mxCell id="5" value="&lt;font style=&quot;font-size: 24px&quot;&gt;3.3V&lt;/font&gt;" style="whiteSpace=wrap;html=1;aspect=fixed;" vertex="1" parent="1">
                    <mxGeometry x="324" y="320" width="80" height="80" as="geometry"/>
                </mxCell>
                <mxCell id="7" value="&lt;font style=&quot;font-size: 17px&quot;&gt;rotary encoder&lt;/font&gt;" style="shape=mxgraph.pid.feeders.feeder_(rotary_table);html=1;pointerEvents=1;align=center;verticalLabelPosition=bottom;verticalAlign=top;dashed=0;fontSize=24;" vertex="1" parent="1">
                    <mxGeometry x="319" y="170" width="90" height="80" as="geometry"/>
                </mxCell>
                <mxCell id="11" value="" style="endArrow=none;html=1;fontSize=17;exitX=0.5;exitY=0;exitDx=0;exitDy=0;exitPerimeter=0;entryX=0;entryY=0.5;entryDx=0;entryDy=0;entryPerimeter=0;" edge="1" parent="1" source="4" target="2">
                    <mxGeometry width="50" height="50" relative="1" as="geometry">
                        <mxPoint x="214" y="370" as="sourcePoint"/>
                        <mxPoint x="264" y="320" as="targetPoint"/>
                    </mxGeometry>
                </mxCell>
                <mxCell id="15" value="" style="endArrow=none;html=1;fontSize=17;entryX=0;entryY=0.5;entryDx=0;entryDy=0;entryPerimeter=0;exitX=0;exitY=0.5;exitDx=0;exitDy=0;exitPerimeter=0;" edge="1" parent="1" source="2" target="3">
                    <mxGeometry width="50" height="50" relative="1" as="geometry">
                        <mxPoint x="54" y="240" as="sourcePoint"/>
                        <mxPoint x="104" y="190" as="targetPoint"/>
                    </mxGeometry>
                </mxCell>
                <mxCell id="16" value="" style="endArrow=none;html=1;fontSize=17;strokeColor=#FFFFFF;exitX=0.5;exitY=0;exitDx=0;exitDy=0;fillColor=#f5f5f5;" edge="1" parent="1" source="5" target="7">
                    <mxGeometry width="50" height="50" relative="1" as="geometry">
                        <mxPoint x="344" y="370" as="sourcePoint"/>
                        <mxPoint x="394" y="320" as="targetPoint"/>
                    </mxGeometry>
                </mxCell>
                <mxCell id="17" value="" style="endArrow=none;html=1;fontSize=17;strokeColor=#FFFFFF;exitX=1;exitY=0.5;exitDx=0;exitDy=0;exitPerimeter=0;entryX=0.004;entryY=0.572;entryDx=0;entryDy=0;entryPerimeter=0;" edge="1" parent="1" source="3" target="7">
                    <mxGeometry width="50" height="50" relative="1" as="geometry">
                        <mxPoint x="224" y="240" as="sourcePoint"/>
                        <mxPoint x="274" y="190" as="targetPoint"/>
                    </mxGeometry>
                </mxCell>
                <mxCell id="18" value="DT" style="edgeLabel;html=1;align=center;verticalAlign=middle;resizable=0;points=[];fontSize=17;" vertex="1" connectable="0" parent="17">
                    <mxGeometry x="-0.3772" y="2" relative="1" as="geometry">
                        <mxPoint x="12" y="14" as="offset"/>
                    </mxGeometry>
                </mxCell>
                <mxCell id="19" value="CLK" style="endArrow=none;html=1;fontSize=17;strokeColor=#FFFFFF;exitX=1;exitY=0.5;exitDx=0;exitDy=0;exitPerimeter=0;entryX=0.021;entryY=0.628;entryDx=0;entryDy=0;entryPerimeter=0;" edge="1" parent="1" source="2" target="7">
                    <mxGeometry width="50" height="50" relative="1" as="geometry">
                        <mxPoint x="244" y="270" as="sourcePoint"/>
                        <mxPoint x="294" y="220" as="targetPoint"/>
                    </mxGeometry>
                </mxCell>
                <mxCell id="28" style="edgeStyle=orthogonalEdgeStyle;rounded=0;html=1;exitX=0;exitY=1;exitDx=0;exitDy=0;fontSize=17;endArrow=none;endFill=0;strokeColor=#FFFFFF;" edge="1" parent="1" source="23">
                    <mxGeometry relative="1" as="geometry">
                        <mxPoint x="124" y="180" as="targetPoint"/>
                    </mxGeometry>
                </mxCell>
                <mxCell id="23" value="STM32" style="whiteSpace=wrap;html=1;aspect=fixed;fontSize=17;" vertex="1" parent="1">
                    <mxGeometry x="124" y="30" width="80" height="80" as="geometry"/>
                </mxCell>
            </root>
        </mxGraphModel>
    </diagram>
</mxfile>